<svg viewBox="0 15 58 31" xmlns="http://www.w3.org/2000/svg">
  <g style="display:inline">
    <path style="display:inline;fill:#e5e5da" d="M57.871 49.5H58v-41H0v41h57.541z"
          transform="matrix(1 0 0 .75206 0 8.602)"/>
    <path
      style="display:inline;fill:#ed8a19" d="M43 15.5h8v8h-8z" transform="matrix(1 0 0 .75206 0 8.602)"/>
    <path
      style="display:inline;fill:#bab395" d="M27 20.5H7a1 1 0 1 1 0-2h20a1 1 0 1 1 0 2z"
      transform="matrix(1 0 0 .75206 0 8.602)"/>
    <path style="fill:#bab395" d="M27 25.5H7a1 1 0 1 1 0-2h20a1 1 0 1 1 0 2z"
          transform="matrix(1 0 0 .75206 0 8.602)"/>
    <path
      style="display:inline;fill:#bab395" d="M15 15.5H7a1 1 0 1 1 0-2h8a1 1 0 1 1 0 2z"
      transform="matrix(1 0 0 .75206 0 8.602)"/>
    <path style="fill:#7383bf"
          d="M36.77 36.139c.683-.824 1.778-.824 2.461 0 .727.878 1.711 1.361 2.769 1.361s2.042-.483 2.77-1.361c.683-.824 1.778-.824 2.461 0 .727.878 1.711 1.361 2.769 1.361s2.042-.483 2.77-1.361a1 1 0 1 0-1.539-1.277c-.683.824-1.778.824-2.461 0-.728-.879-1.712-1.362-2.77-1.362s-2.042.483-2.77 1.361c-.683.824-1.778.824-2.461 0-.727-.878-1.711-1.361-2.769-1.361s-2.042.483-2.77 1.361a1 1 0 1 0 1.54 1.278z"
          transform="matrix(1 0 0 .75206 0 8.602)"/>
    <path
      style="display:inline;fill:#7383bf"
      d="M51.23 40.861c-.683.824-1.778.824-2.461 0-.727-.878-1.711-1.361-2.769-1.361s-2.042.483-2.77 1.361c-.683.824-1.778.824-2.461 0-.727-.878-1.711-1.361-2.769-1.361s-2.042.483-2.77 1.361a1 1 0 1 0 1.539 1.277c.683-.824 1.778-.824 2.461 0 .728.879 1.712 1.362 2.77 1.362s2.042-.483 2.77-1.361c.683-.824 1.778-.824 2.461 0 .727.878 1.711 1.361 2.769 1.361s2.042-.483 2.77-1.361a1 1 0 1 0-1.54-1.278z"
      transform="matrix(1 0 0 .75206 0 8.602)"/>
  </g>
  <path fill="currentColor" d="M32.55 33.107q-.015 0-.03.016H19.96q-.267 0-.497.128-.23.129-.378.34-.252.394-.193.862v6.972q.015.273.164.492.148.22.355.34.371.212.816.151v.016l12.5-.016q.268-.015.483-.166.215-.151.334-.363.207-.363.148-.832h.015l-.015-6.941q-.015-.258-.163-.477-.149-.22-.356-.355-.282-.151-.623-.167Zm-.06.726h.03q.178 0 .297.076.089.045.126.098.037.053.037.144l.015 6.896v.046q.03.242-.074.438-.045.076-.097.114-.052.037-.14.037l-12.457.016h-.044q-.238.03-.416-.076-.089-.045-.126-.098-.037-.053-.037-.144v-6.927l-.015-.06q-.03-.212.082-.378.111-.167.274-.167h12.412ZM21.029 35.3v4.946h1.423v-2.844l1.424 1.815 1.424-1.815v2.844h1.423V35.3H25.3l-1.424 1.815-1.424-1.815zm8.185 0v2.541H27.79l2.135 2.405 2.136-2.405h-1.424v-2.54z" style="display:inline;fill:#7383bf;fill-opacity:1;stroke-width:.0149758"/>
</svg>
